<svg xmlns="http://www.w3.org/2000/svg" width="960" height="600" viewBox="0 0 960 600">
<rect width="960" height="600" rx="12" fill="#0f172a"/>
<defs>
  <marker id="arrf472b6" markerWidth="10" markerHeight="10" refX="9" refY="3.5" orient="auto" markerUnits="strokeWidth">
    <path d="M0,0 L0,7 L10,3.5 z" fill="#f472b6"/>
</marker>
  <marker id="arr38bdf8" markerWidth="10" markerHeight="10" refX="9" refY="3.5" orient="auto" markerUnits="strokeWidth">
    <path d="M0,0 L0,7 L10,3.5 z" fill="#38bdf8"/>
</marker>
  <marker id="arr10b981" markerWidth="10" markerHeight="10" refX="9" refY="3.5" orient="auto" markerUnits="strokeWidth">
    <path d="M0,0 L0,7 L10,3.5 z" fill="#10b981"/>
</marker>
  <marker id="arra78bfa" markerWidth="10" markerHeight="10" refX="9" refY="3.5" orient="auto" markerUnits="strokeWidth">
    <path d="M0,0 L0,7 L10,3.5 z" fill="#a78bfa"/>
</marker>
</defs>
<path d="M353.8,540.0 Q480.5,435.0 565.0,332.0" fill="none" stroke="#10b981" stroke-width="2.5" opacity="0.9" marker-end="url(#arr10b981)"/>
<path d="M353.8,540.0 Q480.5,367.5 565.0,197.0" fill="none" stroke="#10b981" stroke-width="1.5" opacity="0.5" marker-end="url(#arr10b981)"/>
<path d="M353.8,540.0 Q228.5,300.0 145.0,62.0" fill="none" stroke="#38bdf8" stroke-width="1.5" opacity="0.55" marker-end="url(#arr38bdf8)"/>
<path d="M353.8,540.0 Q362.5,300.0 368.3,62.0" fill="none" stroke="#38bdf8" stroke-width="1.5" opacity="0.55" marker-end="url(#arr38bdf8)"/>
<path d="M353.8,540.0 Q496.5,300.0 591.7,62.0" fill="none" stroke="#a78bfa" stroke-width="1.5" opacity="0.55" marker-end="url(#arra78bfa)"/>
<path d="M353.8,540.0 Q630.5,300.0 815.0,62.0" fill="none" stroke="#f472b6" stroke-width="1.5" opacity="0.55" marker-end="url(#arrf472b6)"/>
<path d="M776.2,540.0 Q649.5,435.0 565.0,332.0" fill="none" stroke="#10b981" stroke-width="2.5" opacity="0.9" marker-end="url(#arr10b981)"/>
<path d="M776.2,540.0 Q649.5,367.5 565.0,197.0" fill="none" stroke="#10b981" stroke-width="1.5" opacity="0.5" marker-end="url(#arr10b981)"/>
<path d="M776.2,540.0 Q397.5,300.0 145.0,62.0" fill="none" stroke="#38bdf8" stroke-width="1.5" opacity="0.55" marker-end="url(#arr38bdf8)"/>
<path d="M776.2,540.0 Q531.5,300.0 368.3,62.0" fill="none" stroke="#38bdf8" stroke-width="1.5" opacity="0.55" marker-end="url(#arr38bdf8)"/>
<path d="M776.2,540.0 Q665.5,300.0 591.7,62.0" fill="none" stroke="#a78bfa" stroke-width="1.5" opacity="0.55" marker-end="url(#arra78bfa)"/>
<path d="M776.2,540.0 Q799.5,300.0 815.0,62.0" fill="none" stroke="#f472b6" stroke-width="1.5" opacity="0.55" marker-end="url(#arrf472b6)"/>
<path d="M565.0,380.0 Q565.0,287.5 565.0,197.0" fill="none" stroke="#10b981" stroke-width="2.5" opacity="0.95" marker-end="url(#arr10b981)"/>
<path d="M565.0,245.0 Q313.0,152.5 145.0,62.0" fill="none" stroke="#38bdf8" stroke-width="2.5" opacity="0.95" marker-end="url(#arr38bdf8)"/>
<path d="M565.0,245.0 Q447.0,152.5 368.3,62.0" fill="none" stroke="#38bdf8" stroke-width="2.5" opacity="0.95" marker-end="url(#arr38bdf8)"/>
<rect x="268.8" y="490.0" width="170" height="50" rx="8" fill="#1e293b" stroke="#10b981" stroke-width="1.8"/>
<text x="353.8" y="509.0" text-anchor="middle" font-family="ui-monospace,monospace" font-size="11.5" font-weight="700" fill="#10b981">@emuz/desktop</text>
<text x="353.8" y="525.0" text-anchor="middle" font-family="ui-monospace,monospace" font-size="9.5" fill="#94a3b8">Electron 33</text>
<rect x="691.2" y="490.0" width="170" height="50" rx="8" fill="#1e293b" stroke="#10b981" stroke-width="1.8"/>
<text x="776.2" y="509.0" text-anchor="middle" font-family="ui-monospace,monospace" font-size="11.5" font-weight="700" fill="#10b981">@emuz/mobile</text>
<text x="776.2" y="525.0" text-anchor="middle" font-family="ui-monospace,monospace" font-size="9.5" fill="#94a3b8">RN 0.81 / Expo 54</text>
<rect x="480.0" y="330.0" width="170" height="50" rx="8" fill="#065f46" stroke="#10b981" stroke-width="1.8"/>
<text x="565.0" y="349.0" text-anchor="middle" font-family="ui-monospace,monospace" font-size="11.5" font-weight="700" fill="#10b981">@emuz/ui</text>
<text x="565.0" y="365.0" text-anchor="middle" font-family="ui-monospace,monospace" font-size="9.5" fill="#94a3b8">components · themes</text>
<rect x="480.0" y="195.0" width="170" height="50" rx="8" fill="#064e3b" stroke="#10b981" stroke-width="1.8"/>
<text x="565.0" y="214.0" text-anchor="middle" font-family="ui-monospace,monospace" font-size="11.5" font-weight="700" fill="#10b981">@emuz/core</text>
<text x="565.0" y="230.0" text-anchor="middle" font-family="ui-monospace,monospace" font-size="9.5" fill="#94a3b8">services · stores · models</text>
<rect x="60.0" y="60.0" width="170" height="50" rx="8" fill="#1e3a5f" stroke="#10b981" stroke-width="1.8"/>
<text x="145.0" y="79.0" text-anchor="middle" font-family="ui-monospace,monospace" font-size="11.5" font-weight="700" fill="#10b981">@emuz/database</text>
<text x="145.0" y="95.0" text-anchor="middle" font-family="ui-monospace,monospace" font-size="9.5" fill="#94a3b8">schema · adapters</text>
<rect x="283.3" y="60.0" width="170" height="50" rx="8" fill="#1e3a5f" stroke="#10b981" stroke-width="1.8"/>
<text x="368.3" y="79.0" text-anchor="middle" font-family="ui-monospace,monospace" font-size="11.5" font-weight="700" fill="#10b981">@emuz/platform</text>
<text x="368.3" y="95.0" text-anchor="middle" font-family="ui-monospace,monospace" font-size="9.5" fill="#94a3b8">filesystem · launcher</text>
<rect x="506.7" y="60.0" width="170" height="50" rx="8" fill="#3b1f5e" stroke="#10b981" stroke-width="1.8"/>
<text x="591.7" y="79.0" text-anchor="middle" font-family="ui-monospace,monospace" font-size="11.5" font-weight="700" fill="#10b981">@emuz/emulators</text>
<text x="591.7" y="95.0" text-anchor="middle" font-family="ui-monospace,monospace" font-size="9.5" fill="#94a3b8">registry · detector</text>
<rect x="730.0" y="60.0" width="170" height="50" rx="8" fill="#3b0764" stroke="#10b981" stroke-width="1.8"/>
<text x="815.0" y="79.0" text-anchor="middle" font-family="ui-monospace,monospace" font-size="11.5" font-weight="700" fill="#10b981">@emuz/i18n</text>
<text x="815.0" y="95.0" text-anchor="middle" font-family="ui-monospace,monospace" font-size="9.5" fill="#94a3b8">EN ES FR DE JA ZH</text>
<text x="950" y="90" text-anchor="end" font-family="ui-monospace,monospace" font-size="9" fill="#475569" font-style="italic">apps</text>
<text x="950" y="225" text-anchor="end" font-family="ui-monospace,monospace" font-size="9" fill="#475569" font-style="italic">ui layer</text>
<text x="950" y="360" text-anchor="end" font-family="ui-monospace,monospace" font-size="9" fill="#475569" font-style="italic">core logic</text>
<text x="950" y="520" text-anchor="end" font-family="ui-monospace,monospace" font-size="9" fill="#475569" font-style="italic">leaf libs</text>
<text x="18" y="566" font-family="ui-monospace,monospace" font-size="9" fill="#475569">Arrow A → B means A depends on B</text>
</svg>